#tb 0: 32768/982057
0,          0,          0,        1,   126720, 0x41c3ebfc
0,          1,          1,        1,   126720, 0x16dfec9a
0,          2,          2,        1,   126720, 0x16dfec9a
0,          3,          3,        1,   126720, 0x16dfec9a
0,          4,          4,        1,   126720, 0xd390ecdc
0,          5,          5,        1,   126720, 0xf2eaf468
0,          6,          6,        1,   126720, 0x2bcef4a8
0,          7,          7,        1,   126720, 0x996ff488
0,          8,          8,        1,   126720, 0x5adbb7e4
0,          9,          9,        1,   126720, 0xce00b8a4
0,         10,         10,        1,   126720, 0xc752b8e4
0,         11,         11,        1,   126720, 0xd8c9b8b0
0,         12,         12,        1,   126720, 0x3003b914
0,         13,         13,        1,   126720, 0xaf93bb84
0,         14,         14,        1,   126720, 0x0df4bc04
0,         15,         15,        1,   126720, 0xe4f7bb90
0,         16,         16,        1,   126720, 0xf4f0b8f4
0,         17,         17,        1,   126720, 0x6bbbae4c
0,         18,         18,        1,   126720, 0x189799b5
0,         19,         19,        1,   126720, 0xb3aba7b9
0,         20,         20,        1,   126720, 0xaa58ba49
0,         21,         21,        1,   126720, 0xd458a85d
0,         22,         22,        1,   126720, 0xe2f7ab39
0,         23,         23,        1,   126720, 0xda46aa66
0,         24,         24,        1,   126720, 0x5a87bca9
0,         25,         25,        1,   126720, 0x30aea71a
0,         26,         26,        1,   126720, 0xe7f2eafc
0,         27,         27,        1,   126720, 0xb181b566
0,         28,         28,        1,   126720, 0x06fc036b
0,         29,         29,        1,   126720, 0x5b1184d0
0,         30,         30,        1,   126720, 0xe0dd0159
0,         31,         31,        1,   126720, 0x984eb9c2
0,         32,         32,        1,   126720, 0x18de046e
0,         33,         33,        1,   126720, 0x7739d63b
0,         34,         34,        1,   126720, 0xa8aedbe1
0,         35,         35,        1,   126720, 0x3a8bad65
0,         36,         36,        1,   126720, 0xa0d879dd
0,         37,         37,        1,   126720, 0x9880c604
0,         38,         38,        1,   126720, 0xad34b4e2
0,         39,         39,        1,   126720, 0x62ece114
0,         40,         40,        1,   126720, 0x06321e84
0,         41,         41,        1,   126720, 0xb8a278f7
0,         42,         42,        1,   126720, 0xf3794872
0,         43,         43,        1,   126720, 0x40228bd8
0,         44,         44,        1,   126720, 0xd9eb99be
0,         45,         45,        1,   126720, 0xcd71085c
0,         46,         46,        1,   126720, 0x53b50e7d
0,         47,         47,        1,   126720, 0x115825d5
0,         48,         48,        1,   126720, 0xadb2d397
0,         49,         49,        1,   126720, 0xd8c9e7b3
0,         50,         50,        1,   126720, 0xb8b1e4c6
0,         51,         51,        1,   126720, 0xcf7102d2
0,         52,         52,        1,   126720, 0x9458eab9
0,         53,         53,        1,   126720, 0x9654ee85
0,         54,         54,        1,   126720, 0xf9c8f16b
0,         55,         55,        1,   126720, 0x37bb27c6
0,         56,         56,        1,   126720, 0x01f29e29
0,         57,         57,        1,   126720, 0x2090dc6b
0,         58,         58,        1,   126720, 0x3f6fd6cb
0,         59,         59,        1,   126720, 0x16110602
0,         60,         60,        1,   126720, 0x8f56b840
0,         61,         61,        1,   126720, 0x12f44aa7
0,         62,         62,        1,   126720, 0x8a3b2db5
0,         63,         63,        1,   126720, 0xea6e4b48
0,         64,         64,        1,   126720, 0xf72e3057
0,         65,         65,        1,   126720, 0xbcb28cb0
0,         66,         66,        1,   126720, 0xd8d08db4
0,         67,         67,        1,   126720, 0x93cd8232
0,         68,         68,        1,   126720, 0x58421200
0,         69,         69,        1,   126720, 0xb9754164
0,         70,         70,        1,   126720, 0xeb259b9c
0,         71,         71,        1,   126720, 0xaa726578
0,         72,         72,        1,   126720, 0xe66825b1
0,         73,         73,        1,   126720, 0x9742aa58
0,         74,         74,        1,   126720, 0x8fa5815e
0,         75,         75,        1,   126720, 0xbaf341c7
0,         76,         76,        1,   126720, 0x94ed5495
0,         77,         77,        1,   126720, 0x0c11685f
0,         78,         78,        1,   126720, 0x9ba46776
0,         79,         79,        1,   126720, 0x3ee0921d
0,         80,         80,        1,   126720, 0x736df713
0,         81,         81,        1,   126720, 0xed1aa7dc
0,         82,         82,        1,   126720, 0x916661df
0,         83,         83,        1,   126720, 0xa4e75cb4
0,         84,         84,        1,   126720, 0xb341408d
0,         85,         85,        1,   126720, 0x3dbf5bf7
0,         86,         86,        1,   126720, 0x03c990aa
0,         87,         87,        1,   126720, 0x4d598768
0,         88,         88,        1,   126720, 0xfd953b86
0,         89,         89,        1,   126720, 0xf9796c69
0,         90,         90,        1,   126720, 0xe125664e
0,         91,         91,        1,   126720, 0x7afc671f
0,         92,         92,        1,   126720, 0x5cb8e0d5
0,         93,         93,        1,   126720, 0x5d7d2928
0,         94,         94,        1,   126720, 0xa9f8faa8
0,         95,         95,        1,   126720, 0x2c767188
0,         96,         96,        1,   126720, 0x0188e449
0,         97,         97,        1,   126720, 0x8483812a
0,         98,         98,        1,   126720, 0x54953eb4
0,         99,         99,        1,   126720, 0x7980503e
0,        100,        100,        1,   126720, 0xc6931503
0,        101,        101,        1,   126720, 0xc15613f4
0,        102,        102,        1,   126720, 0xd59fe8fd
0,        103,        103,        1,   126720, 0x71ed62b7
0,        104,        104,        1,   126720, 0x4c154002
0,        105,        105,        1,   126720, 0x7219bca5
0,        106,        106,        1,   126720, 0x3a04a755
0,        107,        107,        1,   126720, 0x0784ad95
0,        108,        108,        1,   126720, 0x29575bd4
